<svg t="1664103241337" class="icon" viewBox="0 0 1024 1024" version="1.1" xmlns="http://www.w3.org/2000/svg" p-id="3719" width="32" height="32"><path d="M908.6 189.3H114.3c-48.3 0-49.4 24.9-49.4 84v510.5c0 28.1 22.6 50.9 50.5 50.9h792.2c27.9 0 50.5-22.8 50.5-50.9V273.4c0.2-28.2 11-84.1-49.5-84.1z" fill="" p-id="3720"></path><path d="M370.2 308.7c-51 2.5-92.6 44.2-96 95.1-4.2 59.5 43.3 109.6 101.9 109.6 56.9 0 101.9-45.9 101.9-101.9 0.9-58.7-48.4-106.2-107.8-102.8M376.1 545.6c-67.9 0-203.8 34-203.8 101.9v51c0 9.3 7.6 17 17 17H563c9.3 0 17-7.6 17-17v-51.8c-0.1-67.1-135.9-101.1-203.9-101.1M851.7 376.6H579.9v34h271.8v-34M851.7 308.7H579.9v34h271.8v-34M851.7 444.6H715.8v33.9h135.9v-33.9" fill="#FFFFFF" p-id="3721"></path></svg>