<svg t="1664879446681" class="icon" viewBox="0 0 1024 1024" version="1.1" xmlns="http://www.w3.org/2000/svg" p-id="6194" width="32" height="32"><path d="M478.985 334.949l-12.223-12.223c-0.924-0.924-4.046-3.405-2.89-2.655-1.712-1.171-3.481-2.262-5.357-3.153a12.86 12.86 0 0 1-0.197-0.095l-0.092-0.031c-1.194-0.405-2.39-0.811-3.615-1.113-0.886-0.218-4.053-0.665-3.655-0.689-0.453-0.029-0.907-0.061-1.361-0.067-1.249-0.018-2.502-0.035-3.749 0.053-0.384 0.027-1.059 0.126-1.632 0.217-1.949 0.407-3.882 0.905-5.75 1.6l-0.161 0.059a14.22 14.22 0 0 1-0.128 0.066c-1.143 0.585-2.288 1.171-3.376 1.855-0.746 0.469-3.641 2.784-2.952 2.125-0.541 0.488-1.074 0.984-1.591 1.501l-0.062 0.062-0.492 0.492-2.539 2.539-10.705 10.705-96.468 96.468-126.324 126.324-81.54 81.54-4.641 4.641c-0.629 0.629-3.171 3.85-2.445 2.724-1.133 1.667-2.186 3.389-3.052 5.211a9.521 9.521 0 0 1-0.095 0.197l-0.031 0.092c-0.405 1.194-0.812 2.39-1.113 3.615-0.217 0.88-0.419 1.765-0.596 2.654-0.052 0.431-0.096 0.852-0.108 1.113-0.071 1.664-0.118 3.335 0 4.998 0.027 0.383 0.126 1.058 0.216 1.631 0.407 1.95 0.905 3.883 1.6 5.752l0.059 0.161 0.066 0.128c0.585 1.143 1.171 2.288 1.855 3.376 0.377 0.599 0.758 1.197 1.151 1.786 0.432 0.506 1.232 1.476 1.539 1.793 10.788 11.116 21.902 21.931 32.855 32.883l11.496 11.496c0.486-0.07 0.972-0.142 1.473-0.237l-5.707-5.923c-21.534-21.534-13.451-58.053 8.083-79.588l274.89-274.89c21.534-21.534 56.448-21.534 77.983 0l1.52 1.52 0.258-0.319-30.397-30.394zM451.467 315h0zM744.851 245.589c21.534-21.534 56.448-21.534 77.983 0l7.228 7.228 0.23-0.284-48.583-48.583-1.182-1.182c-0.351-0.351-0.701-0.704-1.067-1.038-0.517-0.472-2.471-1.966-2.074-1.727-0.493-0.334-0.992-0.66-1.505-0.963a57.385 57.385 0 0 0-3.109-1.724c-0.596-0.237-1.384-0.549-1.753-0.662-1.203-0.37-2.408-0.741-3.639-1.007a28.948 28.948 0 0 0-1.49-0.246c-6.173 0.145-13.547 2.66-21.868 9.791-12.933 11.083-94.065 92.737-171.579 171.228l20.789 20.789 151.619-151.62zM546.334 402.875l20.615 20.615 0.289-0.289-20.617-20.617-0.287 0.291z" fill="#FFFFFF" p-id="6195"></path><path d="M397.715 589.881c-11.46-11.46-18.615-25.08-20.23-41.345-1.89-19.031 6.146-37.245 19.436-50.535l91.731-91.731c7.081-7.081 18.913-7.081 25.994 0 7.081 7.082 7.081 18.913 0 25.994l-53.048 53.048-28.381 28.381c-4.518 4.518-9.424 8.859-13.597 13.711l-0.354 0.421c-0.249 0.359-0.508 0.71-0.746 1.076-0.686 1.091-1.373 2.184-1.961 3.332-0.265 0.519-0.825 1.9-1.012 2.331a27.13 27.13 0 0 0-0.473 1.499c-0.335 1.211-0.67 2.425-0.901 3.661l-0.066 0.347c-0.153 2.266-0.206 4.545-0.012 6.81 0.108 0.57 0.213 1.141 0.343 1.706 0.301 1.222 0.602 2.447 1.007 3.64 0.184 0.541 0.757 1.84 0.949 2.298 0.25 0.49 0.505 0.978 0.784 1.452 0.656 1.115 1.313 2.232 2.067 3.286l0.036 0.051a47 47 0 0 1 0.34 0.368 62.407 62.407 0 0 0 1.902 2.016l10.575 10.575 46.235 46.235 0.669-0.67 35.265 36.604 30.105 30.105 12.864 12.864a54.387 54.387 0 0 0 2.005 1.926c0.585 0.472 1.163 0.925 1.735 1.357 0.785 0.519 1.576 1.029 2.402 1.483 0.695 0.382 1.396 0.754 2.105 1.113 0.581 0.231 1.298 0.513 1.646 0.62 1.602 0.493 3.216 0.964 4.867 1.272l0.347 0.066c2.326 0.157 4.666 0.213 6.991 0l0.298-0.066c1.228-0.265 2.459-0.531 3.661-0.901 0.72-0.221 1.438-0.452 2.151-0.696 0.588-0.264 1.347-0.607 1.679-0.79 1.508-0.828 3.01-1.682 4.411-2.685l0.051-0.036a47 47 0 0 1 0.368-0.34c0.682-0.624 1.324-1.211 1.978-1.865l0.411-0.411 2.379-2.379 10.42-10.42 95.793-95.793 126.395-126.395 82.358-82.358 4.962-4.962a36.495 36.495 0 0 0 1.88-1.994c0.16-0.186 0.293-0.338 0.408-0.467 0.71-1.058 1.42-2.119 2.034-3.237 0.382-0.695 0.754-1.396 1.113-2.104 0.231-0.581 0.513-1.298 0.62-1.646 0.37-1.203 0.741-2.408 1.007-3.639 0.121-0.562 0.296-1.858 0.38-2.405 0.128-2.054 0.138-4.115-0.051-6.166a20.496 20.496 0 0 1-0.064-0.293c-0.265-1.228-0.531-2.459-0.901-3.661a74.411 74.411 0 0 0-0.666-2.07c-4.339-7.491-12.895-16.134-25.636-27.945l-66.709-66.709-7.228-7.228c-21.534-21.534-56.449-21.534-77.983 0l-151.621 151.62 29.138 29.138c5.704 5.704 11.556 11.266 15.699 18.308 14.005 23.808 10.975 55.216-8.438 75.22-28.471 29.338-57.829 57.858-86.737 86.766-7.081 7.081-18.913 7.081-25.994 0-7.082-7.081-7.082-18.913 0-25.994l45.163-45.163 29.004-29.004 8.969-8.97 2.26-2.26c0.919-0.919 3.298-3.895 2.795-3.068 1.102-1.624 2.118-3.308 2.991-5.066 0.233-0.586 0.523-1.321 0.632-1.675 0.37-1.203 0.741-2.408 1.007-3.639 0.127-0.587 0.311-1.972 0.391-2.472 0.028-0.441 0.059-0.882 0.066-1.324 0.018-1.249 0.035-2.502-0.053-3.749a21.611 21.611 0 0 0-0.197-1.505c-0.394-1.892-0.883-3.765-1.521-5.589-0.266-0.593-0.62-1.377-0.806-1.716-0.62-1.129-1.242-2.261-1.961-3.332-0.3-0.447-1.215-1.566-1.542-1.977-0.453-0.5-0.916-0.992-1.395-1.471l-0.147-0.146-11.242-11.242-24.074-24.074-0.289 0.289-20.615-20.615-37.211-37.211-1.52-1.52c-21.534-21.534-56.449-21.534-77.983 0l-274.89 274.89c-21.534 21.534-29.617 58.053-8.083 79.588l5.707 5.923 45.021 46.731 45.337 45.337 0.982 0.982c0.094 0.094 0.194 0.185 0.289 0.279 2.802 2.266 5.455 4.086 8.05 5.395 1.163 0.395 2.329 0.788 3.522 1.082 0.88 0.217 1.765 0.419 2.655 0.596 0.431 0.052 0.852 0.096 1.112 0.107 1.84 0.078 3.689 0.096 5.529-0.026 0.642-0.112 1.585-0.272 2.016-0.378 0.523-0.129 1.045-0.26 1.566-0.397 5.713-2.23 12.019-7.154 19.747-15.311l164.177-164.421-10.172-10.172-44.472-44.47z" fill="#53AFFD" p-id="6196"></path><path d="M264.852 825.029c-1.84 0.122-3.689 0.104-5.529 0.026-0.26-0.011-0.681-0.055-1.112-0.107a60.205 60.205 0 0 1-2.655-0.596c-1.193-0.294-2.359-0.687-3.522-1.082l-0.07-0.023c-0.486-0.235-0.975-0.463-1.452-0.716-1.148-0.587-2.242-1.275-3.332-1.961-0.284-0.179-0.882-0.627-1.383-1.009a41.958 41.958 0 0 1-1.813-1.687c-0.095-0.094-0.195-0.184-0.289-0.279l-0.982-0.982-45.337-45.337-46.494-46.494-11.496-11.496c-10.953-10.953-22.067-21.767-32.855-32.883-0.307-0.316-1.107-1.286-1.539-1.793a82.127 82.127 0 0 1-1.151-1.786c-0.684-1.088-1.27-2.233-1.855-3.376l-0.066-0.128-0.059-0.161c-0.695-1.868-1.193-3.802-1.6-5.752-0.091-0.573-0.189-1.247-0.216-1.631-0.118-1.664-0.071-3.334 0-4.998 0.011-0.261 0.056-0.681 0.108-1.113 0.177-0.89 0.379-1.774 0.596-2.654 0.301-1.225 0.707-2.422 1.113-3.615l0.031-0.092 0.095-0.197c0.866-1.822 1.919-3.544 3.052-5.211-0.726 1.126 1.816-2.096 2.445-2.724l4.641-4.641 81.54-81.54L319.99 432.667l96.468-96.468 10.705-10.705 2.539-2.539 0.492-0.492 0.062-0.062a42.462 42.462 0 0 1 1.591-1.501c-0.689 0.659 2.206-1.656 2.952-2.125 1.088-0.684 2.233-1.27 3.376-1.855l0.128-0.066 0.161-0.059c1.868-0.695 3.801-1.193 5.75-1.6a23.884 23.884 0 0 1 1.632-0.217c1.248-0.088 2.5-0.071 3.749-0.053 0.455 0.006 0.908 0.038 1.361 0.067-0.398 0.024 2.769 0.471 3.655 0.689 1.225 0.301 2.421 0.708 3.615 1.113l0.092 0.031 0.197 0.095c1.875 0.891 3.645 1.982 5.357 3.153-1.155-0.75 1.967 1.731 2.89 2.655l12.223 12.223 30.396 30.396 37.239 37.239 20.617 20.617 24.074 24.074 11.242 11.242 0.147 0.146c0.479 0.479 0.942 0.971 1.395 1.471 0.327 0.411 1.242 1.53 1.542 1.977 0.719 1.071 1.341 2.203 1.961 3.332 0.186 0.339 0.54 1.123 0.806 1.716 0.638 1.824 1.127 3.697 1.521 5.589 0.085 0.543 0.171 1.15 0.197 1.505 0.088 1.248 0.071 2.5 0.053 3.749-0.006 0.442-0.038 0.883-0.066 1.324-0.079 0.5-0.264 1.885-0.391 2.472-0.266 1.231-0.637 2.437-1.007 3.639-0.109 0.354-0.399 1.09-0.632 1.675-0.873 1.759-1.888 3.442-2.991 5.066 0.503-0.827-1.876 2.149-2.795 3.068l-2.26 2.26-8.969 8.97-29.004 29.004-45.163 45.163c-7.082 7.081-7.082 18.913 0 25.994 7.081 7.081 18.913 7.081 25.994 0 28.908-28.908 58.266-57.428 86.737-86.766 19.413-20.005 22.443-51.412 8.438-75.22-4.143-7.043-9.995-12.605-15.699-18.308l-29.138-29.138-20.789-20.789-1.215-1.215-59.773-59.773-16.775-16.775c-11.647-11.647-25.001-18.138-41.345-20.23-17.999-2.304-36.941 5.842-49.515 18.417l-6.693 6.693-33.703 33.703-116.016 116.016-118.628 118.628-36.969 36.969c-11.37 11.37-21.985 22.014-26.513 38.386-5.93 21.441 0.995 44.945 16.576 60.526l12.545 12.545 56.807 56.807 55.499 55.499 10.91 10.91c16.914 16.914 43.794 23.331 66.203 14.244 18.386-7.456 31.551-23.625 45.298-37.372l60.549-60.549 61.763-61.764c7.081-7.081 7.081-18.913 0-25.994-7.081-7.082-18.913-7.082-25.994 0l-93.312 93.312-47.577 47.577-4.197 4.196c-0.47 0.47-0.944 0.93-1.422 1.394-0.317 0.307-1.287 1.107-1.793 1.539-0.589 0.393-1.187 0.774-1.786 1.151-1.088 0.684-2.233 1.27-3.376 1.855l-0.028 0.013c-0.485 0.176-0.966 0.36-1.457 0.518-0.683 0.232-1.376 0.427-2.074 0.61-0.521 0.137-1.043 0.269-1.566 0.397-0.426 0.106-1.369 0.266-2.011 0.378z" fill="" p-id="6197"></path><path d="M950.646 322.745c-4.242-6.322-9.561-11.409-14.886-16.733l-51.826-51.826-59.412-59.412-16.202-16.202c-12.015-12.015-26.467-18.886-43.486-20.091-17.905-1.267-35.368 6.974-47.798 19.404l-14.325 14.325-57.404 57.404-71.645 71.645c-7.082 7.082-7.082 18.913 0 25.994 7.081 7.081 18.913 7.081 25.994 0l93.444-93.444 46.955-46.955 3.881-3.881a53.506 53.506 0 0 1 1.913-1.81c0.483-0.388 1.44-1.165 1.844-1.436 1.071-0.719 2.203-1.34 3.332-1.961 0.348-0.191 1.161-0.557 1.758-0.826a57.197 57.197 0 0 1 3.285-0.995 29.629 29.629 0 0 1 1.879-0.446c0.614-0.099 1.445-0.226 1.888-0.258 1.713-0.121 3.43-0.086 5.143 0.023l0.912 0.134c0.547 0.08 1.151 0.173 1.49 0.246 1.231 0.266 2.437 0.637 3.639 1.007 0.369 0.114 1.157 0.425 1.753 0.662a57.385 57.385 0 0 1 3.109 1.724c0.514 0.302 1.012 0.629 1.505 0.963-0.398-0.239 1.557 1.255 2.074 1.727 0.365 0.334 0.716 0.687 1.067 1.038l1.182 1.182 48.583 48.583 55.592 55.592c10.713 10.713 22.302 21.019 32.322 32.428 0.393 0.489 1.153 1.426 1.422 1.826 0.719 1.071 1.34 2.203 1.961 3.332 0.182 0.332 0.526 1.091 0.79 1.679l0.029 0.081c0.233 0.687 0.453 1.378 0.666 2.07 0.37 1.202 0.636 2.433 0.901 3.661l0.064 0.293c0.189 2.05 0.179 4.112 0.051 6.166-0.084 0.547-0.259 1.843-0.38 2.405-0.266 1.231-0.637 2.437-1.007 3.639-0.107 0.348-0.389 1.066-0.62 1.646a69.199 69.199 0 0 1-1.113 2.104c-0.614 1.118-1.324 2.179-2.034 3.237-0.115 0.13-0.248 0.281-0.408 0.467a36.886 36.886 0 0 1-1.88 1.994l-4.962 4.962-82.358 82.358-126.395 126.395-95.793 95.793-10.42 10.42-2.379 2.379-0.411 0.411c-0.654 0.654-1.296 1.241-1.978 1.865a47 47 0 0 0-0.368 0.34 2.252 2.252 0 0 1-0.051 0.036c-1.402 1.003-2.903 1.857-4.411 2.685-0.332 0.182-1.091 0.525-1.679 0.79-0.713 0.244-1.431 0.474-2.151 0.696-1.202 0.37-2.433 0.636-3.661 0.901l-0.298 0.066c-2.325 0.213-4.665 0.158-6.991 0l-0.347-0.066c-1.65-0.307-3.264-0.779-4.867-1.272-0.348-0.107-1.065-0.389-1.646-0.62a70.457 70.457 0 0 1-2.105-1.113c-0.825-0.453-1.617-0.963-2.402-1.483-0.278-0.184-0.558-0.366-0.835-0.552a43.04 43.04 0 0 0-0.467-0.408c-0.148-0.128-0.288-0.266-0.433-0.398a56.917 56.917 0 0 1-2.005-1.926l-12.864-12.864-30.105-30.105-35.934-35.934-46.235-46.235-10.575-10.575a60.33 60.33 0 0 1-1.902-2.016 47 47 0 0 0-0.34-0.368 2.252 2.252 0 0 1-0.036-0.051c-0.753-1.053-1.411-2.171-2.067-3.286a27.81 27.81 0 0 1-0.784-1.452c-0.192-0.458-0.765-1.757-0.949-2.298-0.405-1.193-0.706-2.418-1.007-3.64-0.13-0.566-0.235-1.136-0.343-1.706-0.194-2.265-0.141-4.545 0.012-6.81l0.066-0.347c0.23-1.237 0.566-2.45 0.901-3.661 0.14-0.505 0.305-1.003 0.473-1.499 0.187-0.431 0.747-1.813 1.012-2.331 0.587-1.148 1.275-2.242 1.961-3.332 0.238-0.366 0.497-0.718 0.746-1.076l0.354-0.421c4.173-4.852 9.08-9.193 13.597-13.711l28.381-28.381 53.048-53.048c7.081-7.082 7.081-18.913 0-25.994-7.081-7.081-18.913-7.081-25.994 0l-91.731 91.731c-13.29 13.29-21.326 31.504-19.436 50.535 1.615 16.265 8.771 29.885 20.23 41.345l44.47 44.47 10.172 10.172 51.824 51.824 21.222 21.222c5.76 5.76 11.297 11.29 18.308 15.699 23.809 14.971 55.017 10.024 75.22-8.438 1.717-1.569 3.316-3.288 4.96-4.931l29.492-29.492 112.352-112.352 121.309-121.309 40.688-40.688c5.895-5.895 12.211-11.581 17.655-17.91 18-20.921 20.828-52.198 5.26-75.401z" fill="" p-id="6198"></path></svg>