<svg t="1664879225943" class="icon" viewBox="0 0 1024 1024" version="1.1" xmlns="http://www.w3.org/2000/svg" p-id="6174" width="32" height="32"><path d="M919.6 363.7L806.1 167.1c-13.5-23.4-33.4-41-56.2-51.9-20.5-11.4-43.9-17.9-68.9-17.9H332.9c-6.4 0-12.6 0.6-18.7 1.4-47 1.7-91.6 28.2-113.1 73.3l-97.6 205c-30.7 64.5-3.1 142.4 61.4 173.1 7.2 3.4 14.5 6 21.9 8v302.8c0 36.9 30 66.9 66.9 66.9h366.8c136.1 0 246.8-110.7 246.8-246.8V543.2c1.6-0.8 3.2-1.3 4.8-2.1 61.8-35.7 83.2-115.6 47.5-177.4z m-99.5 317.2c0 110.1-89.6 199.6-199.6 199.6H253.7c-10.8 0-19.7-8.8-19.7-19.7V561.7c36-3.8 69.6-22.6 91.6-52.9h64.7c20.5 45 65.7 76.6 118.1 76.6s97.6-31.6 118.1-76.6H705c27.8 35.3 71.7 52.9 115 48.7v123.4z" fill="#1296db" p-id="6175"></path></svg>